<svg width="77" height="77" viewBox="0 0 77 77" fill="none" xmlns="http://www.w3.org/2000/svg">
<g id="&#240;&#159;&#166;&#134; icon &#34;arrow ios downward&#34;">
<path id="Vector" d="M38.5713 28.8787C39.321 28.8772 40.0475 29.1383 40.6247 29.6166L59.8747 45.6583C60.5299 46.2029 60.9419 46.9854 61.0201 47.8338C61.0983 48.6822 60.8363 49.5269 60.2918 50.182C59.7472 50.8372 58.9646 51.2493 58.1163 51.3275C57.2679 51.4057 56.4232 51.1437 55.768 50.5991L38.5713 36.2258L21.3747 50.0858C21.0465 50.3523 20.6689 50.5513 20.2636 50.6714C19.8582 50.7915 19.4331 50.8303 19.0128 50.7856C18.5924 50.7409 18.185 50.6135 17.814 50.4108C17.443 50.2081 17.1157 49.9341 16.8509 49.6045C16.5571 49.2747 16.3346 48.8876 16.1973 48.4678C16.06 48.0479 16.0109 47.6042 16.0531 47.1644C16.0952 46.7247 16.2278 46.2984 16.4423 45.9122C16.6569 45.5261 16.9489 45.1884 17.3001 44.9204L36.5501 29.4241C37.1439 29.0214 37.8556 28.8294 38.5713 28.8787Z" fill="#231F20"/>
</g>
</svg>
