<svg width="40" height="41" viewBox="0 0 40 41" fill="none" xmlns="http://www.w3.org/2000/svg">
<path d="M20 10.5C18.7639 10.5 17.5555 10.8666 16.5277 11.5533C15.4999 12.2401 14.6988 13.2162 14.2258 14.3582C13.7527 15.5003 13.6289 16.7569 13.8701 17.9693C14.1113 19.1817 14.7065 20.2953 15.5806 21.1694C16.4547 22.0435 17.5683 22.6388 18.7807 22.8799C19.9931 23.1211 21.2497 22.9973 22.3918 22.5243C23.5338 22.0512 24.5099 21.2501 25.1967 20.2223C25.8835 19.1945 26.25 17.9861 26.25 16.75C26.25 15.0924 25.5915 13.5027 24.4194 12.3306C23.2473 11.1585 21.6576 10.5 20 10.5ZM20 20.5C19.2583 20.5 18.5333 20.2801 17.9166 19.868C17.2999 19.456 16.8193 18.8703 16.5355 18.1851C16.2516 17.4998 16.1774 16.7458 16.3221 16.0184C16.4668 15.291 16.8239 14.6228 17.3484 14.0983C17.8728 13.5739 18.541 13.2167 19.2684 13.0721C19.9958 12.9274 20.7498 13.0016 21.4351 13.2855C22.1203 13.5693 22.706 14.0499 23.118 14.6666C23.5301 15.2833 23.75 16.0083 23.75 16.75C23.7489 17.7442 23.3534 18.6974 22.6504 19.4004C21.9474 20.1034 20.9942 20.4989 20 20.5Z" fill="white"/>
<path d="M20 3C16.5388 3 13.1554 4.02636 10.2775 5.94928C7.39967 7.87221 5.15665 10.6053 3.83212 13.803C2.50758 17.0007 2.16102 20.5194 2.83627 23.9141C3.51151 27.3088 5.17822 30.427 7.62564 32.8744C10.0731 35.3218 13.1913 36.9885 16.5859 37.6637C19.9806 38.339 23.4993 37.9924 26.697 36.6679C29.8947 35.3434 32.6278 33.1003 34.5507 30.2225C36.4737 27.3446 37.5 23.9612 37.5 20.5C37.4948 15.8603 35.6494 11.4122 32.3686 8.13141C29.0879 4.85065 24.6397 3.00523 20 3ZM12.5 33.4706V31.75C12.5011 30.7558 12.8965 29.8026 13.5996 29.0996C14.3026 28.3965 15.2558 28.0011 16.25 28H23.75C24.7442 28.0011 25.6974 28.3965 26.4005 29.0996C27.1035 29.8026 27.4989 30.7558 27.5 31.75V33.4706C25.224 34.7997 22.6357 35.5 20 35.5C17.3644 35.5 14.776 34.7997 12.5 33.4706ZM29.9906 31.6573C29.9658 30.0176 29.2977 28.4533 28.1304 27.3015C26.963 26.1498 25.3899 25.5028 23.75 25.5H16.25C14.6101 25.5028 13.037 26.1498 11.8697 27.3015C10.7023 28.4533 10.0342 30.0176 10.0094 31.6573C7.74259 29.6332 6.14405 26.9683 5.42543 24.0156C4.70681 21.0628 4.90201 17.9614 5.98518 15.1221C7.06836 12.2827 8.98841 9.83933 11.4911 8.11546C13.9938 6.39158 16.9611 5.46853 20 5.46853C23.039 5.46853 26.0062 6.39158 28.5089 8.11546C31.0116 9.83933 32.9317 12.2827 34.0148 15.1221C35.098 17.9614 35.2932 21.0628 34.5746 24.0156C33.856 26.9683 32.2574 29.6332 29.9906 31.6573Z" fill="white"/>
</svg>
