<svg width="37" height="33" viewBox="0 0 37 33" fill="none" xmlns="http://www.w3.org/2000/svg">
<path d="M27.5359 11.0785V9.27131C27.5359 5.86303 27.5359 4.1607 26.477 3.10171C25.418 2.04272 23.7156 2.04272 20.3074 2.04272H16.6931C13.2848 2.04272 11.5825 2.04272 10.5235 3.10171C9.4645 4.1607 9.4645 5.86303 9.4645 9.27131V11.0785M2.45278 19.2829C1.92871 15.4644 1.67029 13.5542 2.75096 12.3163C3.82983 11.0785 5.75805 11.0785 9.61269 11.0785H27.386C31.2424 11.0785 33.1688 11.0785 34.2495 12.3163C35.3302 13.5542 35.0699 15.4644 34.5495 19.2829L33.8085 24.7043C33.4037 27.6861 33.1995 29.1752 32.1785 30.0661C31.1575 30.9571 29.6539 30.9571 26.6486 30.9571H10.3518C7.34472 30.9571 5.84118 30.9571 4.82014 30.0661C3.7973 29.1734 3.5949 27.6843 3.18829 24.7061L2.44917 19.2847L2.45278 19.2829Z" stroke="white" stroke-width="3"/>
</svg>
