<svg width="32" height="23" viewBox="0 0 32 23" fill="none" xmlns="http://www.w3.org/2000/svg">
<path d="M2.53202 9.58333C2.02369 9.58333 1.53618 9.78527 1.17674 10.1447C0.817291 10.5042 0.615356 10.9917 0.615356 11.5C0.615356 12.0083 0.817291 12.4958 1.17674 12.8553C1.53618 13.2147 2.02369 13.4167 2.53202 13.4167V9.58333ZM29.3654 13.4167C29.8737 13.4167 30.3612 13.2147 30.7206 12.8553C31.0801 12.4958 31.282 12.0083 31.282 11.5C31.282 10.9917 31.0801 10.5042 30.7206 10.1447C30.3612 9.78527 29.8737 9.58333 29.3654 9.58333V13.4167ZM2.53202 0C2.02369 0 1.53618 0.201934 1.17674 0.561379C0.817291 0.920824 0.615356 1.40833 0.615356 1.91667C0.615356 2.425 0.817291 2.91251 1.17674 3.27195C1.53618 3.6314 2.02369 3.83333 2.53202 3.83333V0ZM29.3654 3.83333C29.8737 3.83333 30.3612 3.6314 30.7206 3.27195C31.0801 2.91251 31.282 2.425 31.282 1.91667C31.282 1.40833 31.0801 0.920824 30.7206 0.561379C30.3612 0.201934 29.8737 0 29.3654 0V3.83333ZM2.53202 19.1667C2.02369 19.1667 1.53618 19.3686 1.17674 19.728C0.817291 20.0875 0.615356 20.575 0.615356 21.0833C0.615356 21.5917 0.817291 22.0792 1.17674 22.4386C1.53618 22.7981 2.02369 23 2.53202 23V19.1667ZM29.3654 23C29.8737 23 30.3612 22.7981 30.7206 22.4386C31.0801 22.0792 31.282 21.5917 31.282 21.0833C31.282 20.575 31.0801 20.0875 30.7206 19.728C30.3612 19.3686 29.8737 19.1667 29.3654 19.1667V23ZM2.53202 13.4167H29.3654V9.58333H2.53202V13.4167ZM2.53202 3.83333H29.3654V0H2.53202V3.83333ZM2.53202 23H29.3654V19.1667H2.53202V23Z" fill="white"/>
</svg>
