<svg width="32" height="35" viewBox="0 0 32 35" fill="none" xmlns="http://www.w3.org/2000/svg">
<path d="M10.6169 3.89259C10.1014 3.89259 9.60691 4.0974 9.24236 4.46195C8.8778 4.82651 8.673 5.32095 8.673 5.83651C8.673 6.35207 8.8778 6.84651 9.24236 7.21106C9.60691 7.57562 10.1014 7.78042 10.6169 7.78042C11.1325 7.78042 11.6269 7.57562 11.9915 7.21106C12.356 6.84651 12.5608 6.35207 12.5608 5.83651C12.5608 5.32095 12.356 4.82651 11.9915 4.46195C11.6269 4.0974 11.1325 3.89259 10.6169 3.89259ZM5.11563 3.89259C5.51725 2.75437 6.26204 1.76874 7.24733 1.07156C8.23262 0.37439 9.40991 0 10.6169 0C11.8239 0 13.0012 0.37439 13.9865 1.07156C14.9718 1.76874 15.7166 2.75437 16.1182 3.89259H30.0561C30.5716 3.89259 31.0661 4.0974 31.4306 4.46195C31.7952 4.82651 32 5.32095 32 5.83651C32 6.35207 31.7952 6.84651 31.4306 7.21106C31.0661 7.57562 30.5716 7.78042 30.0561 7.78042H16.1182C15.7166 8.91865 14.9718 9.90428 13.9865 10.6015C13.0012 11.2986 11.8239 11.673 10.6169 11.673C9.40991 11.673 8.23262 11.2986 7.24733 10.6015C6.26204 9.90428 5.51725 8.91865 5.11563 7.78042H2.84125C2.3257 7.78042 1.83125 7.57562 1.4667 7.21106C1.10214 6.84651 0.897339 6.35207 0.897339 5.83651C0.897339 5.32095 1.10214 4.82651 1.4667 4.46195C1.83125 4.0974 2.3257 3.89259 2.84125 3.89259H5.11563ZM22.2804 15.5561C21.7648 15.5561 21.2704 15.7609 20.9058 16.1254C20.5413 16.49 20.3365 16.9844 20.3365 17.5C20.3365 18.0156 20.5413 18.51 20.9058 18.8746C21.2704 19.2391 21.7648 19.4439 22.2804 19.4439C22.796 19.4439 23.2904 19.2391 23.655 18.8746C24.0195 18.51 24.2243 18.0156 24.2243 17.5C24.2243 16.9844 24.0195 16.49 23.655 16.1254C23.2904 15.7609 22.796 15.5561 22.2804 15.5561ZM16.7791 15.5561C17.1807 14.4179 17.9255 13.4322 18.9108 12.7351C19.8961 12.0379 21.0734 11.6635 22.2804 11.6635C23.4874 11.6635 24.6647 12.0379 25.65 12.7351C26.6353 13.4322 27.3801 14.4179 27.7817 15.5561H30.0561C30.5716 15.5561 31.0661 15.7609 31.4306 16.1254C31.7952 16.49 32 16.9844 32 17.5C32 18.0156 31.7952 18.51 31.4306 18.8746C31.0661 19.2391 30.5716 19.4439 30.0561 19.4439H27.7817C27.3801 20.5821 26.6353 21.5678 25.65 22.2649C24.6647 22.9621 23.4874 23.3365 22.2804 23.3365C21.0734 23.3365 19.8961 22.9621 18.9108 22.2649C17.9255 21.5678 17.1807 20.5821 16.7791 19.4439H2.84125C2.3257 19.4439 1.83125 19.2391 1.4667 18.8746C1.10214 18.51 0.897339 18.0156 0.897339 17.5C0.897339 16.9844 1.10214 16.49 1.4667 16.1254C1.83125 15.7609 2.3257 15.5561 2.84125 15.5561H16.7791ZM10.6169 27.2196C10.1014 27.2196 9.60691 27.4244 9.24236 27.7889C8.8778 28.1535 8.673 28.6479 8.673 29.1635C8.673 29.679 8.8778 30.1735 9.24236 30.538C9.60691 30.9026 10.1014 31.1074 10.6169 31.1074C11.1325 31.1074 11.6269 30.9026 11.9915 30.538C12.356 30.1735 12.5608 29.679 12.5608 29.1635C12.5608 28.6479 12.356 28.1535 11.9915 27.7889C11.6269 27.4244 11.1325 27.2196 10.6169 27.2196ZM5.11563 27.2196C5.51725 26.0813 6.26204 25.0957 7.24733 24.3985C8.23262 23.7014 9.40991 23.327 10.6169 23.327C11.8239 23.327 13.0012 23.7014 13.9865 24.3985C14.9718 25.0957 15.7166 26.0813 16.1182 27.2196H30.0561C30.5716 27.2196 31.0661 27.4244 31.4306 27.7889C31.7952 28.1535 32 28.6479 32 29.1635C32 29.679 31.7952 30.1735 31.4306 30.538C31.0661 30.9026 30.5716 31.1074 30.0561 31.1074H16.1182C15.7166 32.2456 14.9718 33.2313 13.9865 33.9284C13.0012 34.6256 11.8239 35 10.6169 35C9.40991 35 8.23262 34.6256 7.24733 33.9284C6.26204 33.2313 5.51725 32.2456 5.11563 31.1074H2.84125C2.3257 31.1074 1.83125 30.9026 1.4667 30.538C1.10214 30.1735 0.897339 29.679 0.897339 29.1635C0.897339 28.6479 1.10214 28.1535 1.4667 27.7889C1.83125 27.4244 2.3257 27.2196 2.84125 27.2196H5.11563Z" fill="#FFF852"/>
</svg>
